{"title":"The Sound of Music (1965) BDRip XviD AC3 Soup","uid":11919953,"size":2877031972,"categoryP":"video","categoryS":"hd___movies","magnet":"?xt=urn:btih:1b33f6cbbb99cf06b50e32ee108b6983d006e1d7&amp;dn=The+Sound+of+Music+%281965%29+BDRip+XviD+AC3+Soup&amp;tr=udp%3A%2F%2Ftracker.openbittorrent.com%3A80&amp;tr=udp%3A%2F%2Fopen.demonii.com%3A1337&amp;tr=udp%3A%2F%2Ftracker.coppersurfer.tk%3A6969&amp;tr=udp%3A%2F%2Fexodus.desync.com%3A6969","seeders":6,"leechers":7,"uploader":"peaSoup","files":5,"time":1431609971,"description":" &lt;a href=&quot;http://i.imgur.com/LcOTRxw.png&quot; rel=&quot;nofollow&quot; target=&quot;_NEW&quot;&gt;http://i.imgur.com/LcOTRxw.png&lt;/a&gt;                                                       A woman leaves an Austrian convent to become a governess to the children of a Naval officer widower.                                                                    &lt;a href=&quot; http://i.imgur.com/8PAH2Kc.jpg&quot; rel=&quot;nofollow&quot; target=&quot;_NEW&quot;&gt; http://i.imgur.com/8PAH2Kc.jpg&lt;/a&gt;                                                      &lt;a href=&quot; http://i.imgur.com/hmJzm79.jpg&quot; rel=&quot;nofollow&quot; target=&quot;_NEW&quot;&gt; http://i.imgur.com/hmJzm79.jpg&lt;/a&gt;                                                      &lt;a href=&quot; http://i.imgur.com/jcOa89r.jpg&quot; rel=&quot;nofollow&quot; target=&quot;_NEW&quot;&gt; http://i.imgur.com/jcOa89r.jpg&lt;/a&gt;                                                      &lt;a href=&quot; http://i.imgur.com/3Vzzstc.jpg&quot; rel=&quot;nofollow&quot; target=&quot;_NEW&quot;&gt; http://i.imgur.com/3Vzzstc.jpg&lt;/a&gt;                                                       \nFormat                      : AVI\nFormat/Info                 : Audio Video Interleave\nFormat profile              : OpenDML\nFile size                   : 2.63 GiB\nDuration                    : 2h 54mn\nOverall bit rate            : 2 156 Kbps\nMovie name                  : The Sound of Music (1965) BDRip XviD AC3 Soup\nWriting application         : Lavf56.9.100\nOriginal source form/Name   : SOUND_OF_MUSIC_WW\n\nVideo\nID                          : 0\nFormat                      : MPEG-4 Visual\nFormat profile              : Advanced Simple@L5\nFormat settings, BVOP       : 1\nFormat settings, QPel       : No\nFormat settings, GMC        : No warppoints\nFormat settings, Matrix     : Default (MPEG)\nMuxing mode                 : Packed bitstream\nCodec ID                    : XVID\nCodec ID/Hint               : XviD\nDuration                    : 2h 54mn\nBit rate                    : 1 699 Kbps\nWidth                       : 720 pixels\nHeight                      : 328 pixels\nDisplay aspect ratio        : 2.2:1\nFrame rate                  : 23.976 fps\nColor space                 : YUV\nChroma subsampling          : 4:2:0\nBit depth                   : 8 bits\nScan type                   : Progressive\nCompression mode            : Lossy\nBits/(Pixel*Frame)          : 0.300\nStream size                 : 2.07 GiB (79%)\nWriting library             : XviD 64\n\nAudio\nID                          : 1\nFormat                      : AC-3\nFormat/Info                 : Audio Coding 3\nMode extension              : CM (complete main)\nFormat settings, Endianness : Big\nCodec ID                    : 2000\nDuration                    : 2h 54mn\nBit rate mode               : Constant\nBit rate                    : 448 Kbps\nChannel(s)                  : 6 channels\nChannel positions           : Front: L C R, Side: L R, LFE\nSampling rate               : 48.0 KHz\nCompression mode            : Lossy\nStream size                 : 560 MiB (21%)\nAlignment                   : Aligned on interleaves\nInterleave, duration        : 32 ms (0.77 video frame)","torrent":{"xt":"urn:btih:1b33f6cbbb99cf06b50e32ee108b6983d006e1d7","amp;dn":"The+Sound+of+Music+%281965%29+BDRip+XviD+AC3+Soup","amp;tr":["udp%3A%2F%2Ftracker.openbittorrent.com%3A80","udp%3A%2F%2Fopen.demonii.com%3A1337","udp%3A%2F%2Ftracker.coppersurfer.tk%3A6969","udp%3A%2F%2Fexodus.desync.com%3A6969"],"infoHash":"1b33f6cbbb99cf06b50e32ee108b6983d006e1d7","infoHashBuffer":{"type":"Buffer","data":[27,51,246,203,187,153,207,6,181,14,50,238,16,139,105,131,208,6,225,215]},"announce":[],"urlList":[]}}